# xmcd
#
# Track frame offsets:
#  150
#  27771
#  47256
#  68401
#  83126
#  99615
#  117203
#  138487
#  163122
#  181164
#  197381
#  212921
#  227403
#  244667
#  265790
#  268575
#
# Disc length: 3865 seconds
#
# Revision: 0
# Processed by: cddbd v1.5.1PL0 Copyright (c) Steve Scherf et al.
# Submitted via: Collectorz.com Music Collector 6.9
#
DISCID=ca0f1710
DTITLE=guy clark and steve earle - Merlefest 30th April 1999
DYEAR=1999
DGENRE=
TTITLE0=guy clark - Baton Rouge
TTITLE1=steve earle - South Nashville Blues
TTITLE2=guy clark - La Freeway
TTITLE3=steve earle - My Old Friend The Blues
TTITLE4=guy clark - Picasso's Mandolin
TTITLE5=steve earle - Now She's Gone
TTITLE6=guy clark - Out In The Parking Lot
TTITLE7=Justin Earle - Bye Bye Baby
TTITLE8=guy clark - Dublin Blues
TTITLE9=steve earle - Halo Round The Moon
TTITLE10=jamie hartford - Somebody's Gonna Pay
TTITLE11=steve earle - Another Town
TTITLE12=guy clark - Texas 1947
TTITLE13=guy clark - No Deal
TTITLE14=steve earle - Fort Worth Blues
TTITLE15=Data track
EXTD=
EXTT0=
EXTT1=
EXTT2=
EXTT3=
EXTT4=
EXTT5=
EXTT6=
EXTT7=
EXTT8=
EXTT9=
EXTT10=
EXTT11=
EXTT12=
EXTT13=
EXTT14=
EXTT15=
PLAYORDER=
